<mxfile host="app.diagrams.net" modified="2022-05-29T16:02:42.504Z" agent="5.0 (Macintosh; Intel Mac OS X 10_15_7) AppleWebKit/605.1.15 (KHTML, like Gecko) Version/15.4 Safari/605.1.15" etag="lih8xqQZnwfphka-04s_" version="18.1.3" type="github">
  <diagram id="imvIGspGnV9eovQ4TVUC" name="Page-1">
    <mxGraphModel dx="946" dy="645" grid="1" gridSize="10" guides="1" tooltips="1" connect="1" arrows="1" fold="1" page="1" pageScale="1" pageWidth="1169" pageHeight="827" math="0" shadow="0">
      <root>
        <mxCell id="0" />
        <mxCell id="1" parent="0" />
        <mxCell id="uthg2pFocaPEbMSlvV8R-7" style="edgeStyle=orthogonalEdgeStyle;rounded=0;orthogonalLoop=1;jettySize=auto;html=1;fontColor=default;" edge="1" parent="1">
          <mxGeometry relative="1" as="geometry">
            <mxPoint x="500" y="179" as="targetPoint" />
            <mxPoint x="270" y="179" as="sourcePoint" />
          </mxGeometry>
        </mxCell>
        <mxCell id="uthg2pFocaPEbMSlvV8R-10" value="缓存获取不到则从服务端获取" style="edgeLabel;html=1;align=center;verticalAlign=middle;resizable=0;points=[];fontColor=default;" vertex="1" connectable="0" parent="uthg2pFocaPEbMSlvV8R-7">
          <mxGeometry x="0.1652" y="3" relative="1" as="geometry">
            <mxPoint x="-14" y="-16" as="offset" />
          </mxGeometry>
        </mxCell>
        <mxCell id="uthg2pFocaPEbMSlvV8R-8" value="从本地缓存获取" style="edgeStyle=orthogonalEdgeStyle;rounded=0;orthogonalLoop=1;jettySize=auto;html=1;fontColor=default;" edge="1" parent="1" source="uthg2pFocaPEbMSlvV8R-2" target="uthg2pFocaPEbMSlvV8R-3">
          <mxGeometry relative="1" as="geometry" />
        </mxCell>
        <mxCell id="uthg2pFocaPEbMSlvV8R-2" value="" style="sketch=0;outlineConnect=0;fontColor=#232F3E;gradientColor=none;strokeColor=#232F3E;fillColor=#ffffff;dashed=0;verticalLabelPosition=bottom;verticalAlign=top;align=center;html=1;fontSize=12;fontStyle=0;aspect=fixed;shape=mxgraph.aws4.resourceIcon;resIcon=mxgraph.aws4.mobile_client;labelBackgroundColor=none;" vertex="1" parent="1">
          <mxGeometry x="210" y="160" width="60" height="60" as="geometry" />
        </mxCell>
        <mxCell id="uthg2pFocaPEbMSlvV8R-3" value="" style="sketch=0;points=[[0,0,0],[0.25,0,0],[0.5,0,0],[0.75,0,0],[1,0,0],[0,1,0],[0.25,1,0],[0.5,1,0],[0.75,1,0],[1,1,0],[0,0.25,0],[0,0.5,0],[0,0.75,0],[1,0.25,0],[1,0.5,0],[1,0.75,0]];outlineConnect=0;fontColor=#232F3E;gradientColor=none;gradientDirection=north;fillColor=none;strokeColor=#1F1F1F;dashed=0;verticalLabelPosition=bottom;verticalAlign=top;align=center;html=1;fontSize=12;fontStyle=0;aspect=fixed;shape=mxgraph.aws4.resourceIcon;resIcon=mxgraph.aws4.database;labelBackgroundColor=none;" vertex="1" parent="1">
          <mxGeometry x="211" y="281" width="58" height="58" as="geometry" />
        </mxCell>
        <mxCell id="uthg2pFocaPEbMSlvV8R-4" value="" style="aspect=fixed;perimeter=ellipsePerimeter;html=1;align=center;shadow=0;dashed=0;spacingTop=3;image;image=img/lib/active_directory/web_server.svg;labelBackgroundColor=none;fontColor=default;strokeColor=#080808;fillColor=none;gradientColor=none;gradientDirection=east;" vertex="1" parent="1">
          <mxGeometry x="510" y="150" width="48" height="60" as="geometry" />
        </mxCell>
        <mxCell id="uthg2pFocaPEbMSlvV8R-9" value="" style="endArrow=classic;html=1;rounded=0;fontColor=default;" edge="1" parent="1">
          <mxGeometry width="50" height="50" relative="1" as="geometry">
            <mxPoint x="500" y="200" as="sourcePoint" />
            <mxPoint x="270" y="200" as="targetPoint" />
          </mxGeometry>
        </mxCell>
        <mxCell id="uthg2pFocaPEbMSlvV8R-11" value="文件更新：返回200 + 文件内容&lt;br&gt;文件未更新：返回304 + 空body" style="edgeLabel;html=1;align=center;verticalAlign=middle;resizable=0;points=[];fontColor=default;" vertex="1" connectable="0" parent="uthg2pFocaPEbMSlvV8R-9">
          <mxGeometry x="-0.0522" y="1" relative="1" as="geometry">
            <mxPoint x="8" y="18" as="offset" />
          </mxGeometry>
        </mxCell>
      </root>
    </mxGraphModel>
  </diagram>
</mxfile>
